<?xml version="1.0"?>
<svg xmlns="http://www.w3.org/2000/svg" id="bold" enable-background="new 0 0 24 24" height="512px" viewBox="0 0 24 24" width="512px"><g><path d="m5 17.5h-.5v1h.5c.28 0 .5-.22.5-.5s-.22-.5-.5-.5z" data-original="#000000" class="active-path" data-old_color="#000000" fill="#29B7D3"/><path d="m10.25 17.5h-.75v3h.75c.14 0 .25-.11.25-.25v-2.5c0-.14-.11-.25-.25-.25z" data-original="#000000" class="active-path" data-old_color="#000000" fill="#29B7D3"/><path d="m14 11c-2.76 0-5-2.24-5-5 0-1.98 1.17-3.74 2.91-4.54.28-.54.62-1.03 1.03-1.46h-10.19c-1.52 0-2.75 1.23-2.75 2.75v18.5c0 1.52 1.23 2.75 2.75 2.75h14.5c1.52 0 2.75-1.23 2.75-2.75v-10.25zm-9 9h-.5v1.25c0 .41-.34.75-.75.75s-.75-.34-.75-.75v-4.5c0-.41.34-.75.75-.75h1.25c1.1 0 2 .9 2 2s-.9 2-2 2zm7 .25c0 .96-.79 1.75-1.75 1.75h-1.5c-.41 0-.75-.34-.75-.75v-4.5c0-.41.34-.75.75-.75h1.5c.96 0 1.75.79 1.75 1.75zm4.25-1.75c.414 0 .75.336.75.75s-.336.75-.75.75h-1.75v1.25c0 .414-.336.75-.75.75s-.75-.336-.75-.75v-3.5c0-.965.785-1.75 1.75-1.75h1.5c.414 0 .75.336.75.75s-.336.75-.75.75h-1.5c-.138 0-.25.112-.25.25v.75z" data-original="#000000" class="active-path" data-old_color="#000000" fill="#29B7D3"/><path d="m20.5 9h-6.5c-1.654 0-3-1.346-3-3 0-1.458 1.044-2.675 2.424-2.945.52-1.777 2.178-3.055 4.076-3.055 1.499 0 2.885.797 3.643 2.062 1.633.299 2.857 1.732 2.857 3.438 0 1.93-1.57 3.5-3.5 3.5z" data-original="#000000" class="active-path" data-old_color="#000000" fill="#29B7D3"/></g> </svg>
