<?xml version="1.0"?>
<svg xmlns="http://www.w3.org/2000/svg" id="Flat" height="512px" viewBox="0 0 512 512" width="512px" class=""><g><rect fill="#f7cc38" height="336" rx="32" width="416" x="72" y="152" data-original="#F7CC38" class="" style="fill:#FFB606" data-old_color="#f7cc38"/><path d="m440 104v304a32 32 0 0 1 -32 32h-256a32 32 0 0 1 -32-32v-352a32 32 0 0 1 32-32h208z" fill="#e9eef2" data-original="#E9EEF2" class="" style="fill:#FFDECC" data-old_color="#e9eef2"/><path d="m424 488h-368a32 32 0 0 1 -32-32v-320a32 32 0 0 1 32-32h96a32 32 0 0 1 32 32v64h176a32 32 0 0 1 32 32v224a32 32 0 0 0 32 32" fill="#fbe36a" data-original="#FBE36A" class="" style="fill:#FFCC52" data-old_color="#fbe36a"/><g fill="#c3c6c7"><path d="m392 160h-112a8 8 0 0 1 0-16h112a8 8 0 0 1 0 16z" data-original="#C3C6C7" class="active-path" style="fill:#FFFFFF" data-old_color="#C3C6C7"/><path d="m280 112h-56a8 8 0 0 1 0-16h56a8 8 0 0 1 0 16z" data-original="#C3C6C7" class="active-path" style="fill:#FFFFFF" data-old_color="#C3C6C7"/><path d="m440 104h-48a32 32 0 0 1 -32-32v-48z" data-original="#C3C6C7" class="active-path" style="fill:#FFFFFF" data-old_color="#C3C6C7"/><path d="m248 160h-16a8 8 0 0 1 0-16h16a8 8 0 0 1 0 16z" data-original="#C3C6C7" class="active-path" style="fill:#FFFFFF" data-old_color="#C3C6C7"/></g><path d="m184.879 423.995 55.293-64.611-31.998.351-1.055-95.994-47.997.528 1.055 95.994-31.998.351z" fill="#f79539" data-original="#F79539" class="" style="fill:#000000" data-old_color="#f79539"/></g> </svg>
