<?xml version="1.0"?>
<svg xmlns="http://www.w3.org/2000/svg" id="Capa_1" enable-background="new 0 0 512 512" height="512px" viewBox="0 0 512 512" width="512px" class=""><g><g><path d="m451 121h-5.142c-13.623-38.525-51.973-65.156-95.098-59.312-17.05-36.796-53.627-61.688-94.76-61.688s-77.71 24.892-94.761 61.688c-43.125-5.698-81.474 20.801-95.097 59.312h-5.142c-33.091 0-61 26.909-61 60s27.909 60 61 60h195 195c33.091 0 61-26.909 61-60s-27.909-60-61-60z" fill="#e6f7ff" data-original="#E6F7FF" class="" style="fill:#3D3B3B" data-old_color="#e6f7ff"/><path d="m512 181c0-33.091-27.909-60-61-60h-5.142c-13.623-38.525-51.973-65.156-95.098-59.312-17.05-36.796-53.627-61.688-94.76-61.688v241h195c33.091 0 61-26.909 61-60z" fill="#cce6ff" data-original="#CCE6FF" class="" style="fill:#000000" data-old_color="#cce6ff"/><path d="m271 181h-15-120v331h120 120v-226z" fill="#6cf" data-original="#6CF" class="" data-old_color="#6cf" style="fill:#FFC946"/><path d="m376 286-105-105h-15v331h120z" fill="#4da6ff" data-original="#4DA6FF" class="" style="fill:#FFB606" data-old_color="#4da6ff"/><path d="m271 181v105h105c0-57.891-47.109-105-105-105z" fill="#4d88ff" data-original="#4D88FF" class="active-path" style="fill:#FFCD54" data-old_color="#4d88ff"/><path d="m290.395 365.395-19.395 19.394v-53.789h-15-15v53.789l-19.395-19.394-21.21 21.21 55.605 55.606 55.605-55.606z" fill="#e6f7ff" data-original="#E6F7FF" class="" style="fill:#3D3B3B" data-old_color="#e6f7ff"/><path d="m290.395 365.395-19.395 19.394v-53.789h-15v111.211l55.605-55.606z" fill="#cce6ff" data-original="#CCE6FF" class="" style="fill:#000000" data-old_color="#cce6ff"/></g></g> </svg>
