<?xml version="1.0"?>
<svg xmlns="http://www.w3.org/2000/svg" id="Layer_1" enable-background="new 0 0 128 128" height="512px" viewBox="0 0 128 128" width="512px" class=""><g><path d="m100.809 93.369 13.922-16.057c.78-.898.958-2.129.463-3.212-.494-1.081-1.539-1.753-2.727-1.753-.001 0-.002 0-.004 0l-5.208.003v-18.538c0-1.654-1.346-3-3-3h-4.727v-22.53c0-4.963-4.037-9-9-9h-11.999-53-.002s0 0-.001 0c-4.961.002-8.997 4.038-8.997 9v5.982c0 .553.448 1 1 1h14.998l.001 68.454c0 4.963 4.038 9 9 9h6.292 50.707 2.293c4.963 0 9-4.037 9-9v-5.982c0-.553-.447-1-1-1h-9.293v-2.517c.489-.171.935-.451 1.282-.85z" fill="#e6e7e8" data-original="#E6E7E8" class="" style="fill:#FFFFFF" data-old_color="#e6e7e8"/><path d="m29.528 24.282c0-4.418-3.581-7.999-7.999-8-4.418.001-7.999 3.582-7.999 8v5.982h15.998z" fill="#fa759e" data-original="#FA759E" class="" style="fill:#DC9C00" data-old_color="#fa759e"/><path d="m51.821 99.718v-5.982h42.707v-4.334c-.551-.004-1.101-.231-1.496-.687l-13.945-16.043c-1.125-1.295-.206-3.312 1.509-3.312h6.21v-19.548c0-1.104.895-2 2-2h5.722v-23.53c0-4.418-3.582-8-8-8h-65c4.418 0 8 3.582 8 8l.001 75.436c0 4.418 3.582 8 8 8h6.293c4.418 0 7.999-3.582 7.999-8z" fill="#ffd7e5" data-original="#FFD7E5" class="" style="fill:#FFC842" data-old_color="#ffd7e5"/><path d="m86.529 16.282h-65.001c2.525 0 4.773 1.173 6.24 3h58.761c4.418 0 8 3.582 8 8v-3c0-4.419-3.582-8-8-8z" fill="#fff" data-original="#FFF" class=""/><path d="m51.821 93.736v5.982c0 4.418-3.582 8-8 8h53c4.418 0 8-3.582 8-8v-5.982z" fill="#fa759e" data-original="#FA759E" class="" style="fill:#DC9C00" data-old_color="#fa759e"/><path d="m93.032 88.715-13.945-16.043c-1.125-1.295-.206-3.312 1.509-3.312h6.21v-19.548c0-1.105.895-2 2-2h11.448c1.105 0 2 .895 2 2v19.539l6.209-.004c1.715-.001 2.636 2.015 1.512 3.31l-13.922 16.056c-.797.919-2.223.92-3.021.002z" fill="#0089ef" data-original="#0089EF" class="active-path" style="fill:#FFDECC" data-old_color="#0089ef"/><g fill="#3a2c60"><path d="m29.528 62c.552 0 1-.447 1-1v-10.27c0-.553-.448-1-1-1s-1 .447-1 1v10.27c0 .552.448 1 1 1z" data-original="#3A2C60" class="" style="fill:#000000" data-old_color="#3A2C60"/><path d="m40.155 33.184h43.667c.553 0 1-.447 1-1s-.447-1-1-1h-43.667c-.552 0-1 .447-1 1s.448 1 1 1z" data-original="#3A2C60" class="" style="fill:#000000" data-old_color="#3A2C60"/><path d="m40.155 43.184h43.667c.553 0 1-.447 1-1s-.447-1-1-1h-43.667c-.552 0-1 .447-1 1s.448 1 1 1z" data-original="#3A2C60" class="" style="fill:#000000" data-old_color="#3A2C60"/><path d="m40.155 53.184h35.667c.553 0 1-.447 1-1s-.447-1-1-1h-35.667c-.552 0-1 .447-1 1s.448 1 1 1z" data-original="#3A2C60" class="" style="fill:#000000" data-old_color="#3A2C60"/><path d="m40.155 63.184h30.667c.553 0 1-.447 1-1s-.447-1-1-1h-30.667c-.552 0-1 .447-1 1s.448 1 1 1z" data-original="#3A2C60" class="" style="fill:#000000" data-old_color="#3A2C60"/><path d="m40.155 73.184h30.667c.553 0 1-.447 1-1s-.447-1-1-1h-30.667c-.552 0-1 .447-1 1s.448 1 1 1z" data-original="#3A2C60" class="" style="fill:#000000" data-old_color="#3A2C60"/><path d="m40.155 83.184h30.667c.553 0 1-.447 1-1s-.447-1-1-1h-30.667c-.552 0-1 .447-1 1s.448 1 1 1z" data-original="#3A2C60" class="" style="fill:#000000" data-old_color="#3A2C60"/><path d="m96.809 89.369 13.922-16.057c.78-.898.958-2.129.463-3.212-.494-1.081-1.539-1.753-2.727-1.753-.001 0-.002 0-.004 0l-5.208.003v-18.538c0-1.654-1.346-3-3-3h-4.727v-22.53c0-4.963-4.037-9-9-9h-11.999-53-.002s0 0-.001 0c-4.961.002-8.997 4.038-8.997 9v5.982c0 .553.448 1 1 1h14.998v13.92c0 .553.448 1 1 1s1-.447 1-1v-20.902c0-2.824-1.308-5.349-3.349-7h59.35c3.859 0 7 3.141 7 7v22.53h-4.722c-1.654 0-3 1.346-3 3v18.548h-5.21c-1.19 0-2.236.673-2.729 1.756-.494 1.083-.315 2.314.465 3.213l13.945 16.043c.34.39.775.666 1.251.838v2.526h-41.707c-.552 0-1 .447-1 1v5.982c0 3.859-3.14 7-7 7h-6.292c-3.86 0-7-3.141-7-7v-33.719c0-.553-.448-1-1-1s-1 .447-1 1v33.719c0 4.963 4.038 9 9 9h6.292 50.707 2.293c4.963 0 9-4.037 9-9v-5.982c0-.553-.447-1-1-1h-9.293v-2.517c.488-.171.934-.451 1.281-.85zm-68.282-65.087v4.982h-13.997v-4.982c0-3.859 3.14-6.999 6.999-7 3.859 0 6.998 3.141 6.998 7zm75.294 75.436c0 3.859-3.141 7-7 7h-47.349c2.042-1.651 3.349-4.176 3.349-7v-4.982h51zm-23.979-27.702c-.392-.45-.218-.934-.155-1.071.062-.137.313-.585.91-.585h6.21c.553 0 1-.447 1-1v-19.548c0-.552.448-1 1-1h11.448c.552 0 1 .448 1 1v19.539c0 .266.105.52.293.707s.442.293.707.293h.001l6.209-.004h.002c.595 0 .845.447.907.584.063.138.237.62-.154 1.07l-13.923 16.057c-.192.223-.461.345-.755.345 0 0 0 0-.001 0-.293 0-.562-.122-.754-.344z" data-original="#3A2C60" class="" style="fill:#000000" data-old_color="#3A2C60"/></g></g> </svg>
