<?xml version="1.0"?>
<svg xmlns="http://www.w3.org/2000/svg" xmlns:xlink="http://www.w3.org/1999/xlink" version="1.1" id="Capa_1" x="0px" y="0px" viewBox="0 0 58 58" style="enable-background:new 0 0 58 58;" xml:space="preserve" width="512px" height="512px" class=""><g><g>
	<g>
		<polygon style="fill:#FFB606" points="46.5,14 32.5,0 1.5,0 1.5,58 46.5,58   " data-original="#EFEBDE" class="" data-old_color="#EFEBDE"/>
		<g>
			<path style="fill:#FFFFFF" d="M11.5,23h25c0.552,0,1-0.447,1-1s-0.448-1-1-1h-25c-0.552,0-1,0.447-1,1S10.948,23,11.5,23z" data-original="#D5D0BB" class="active-path" data-old_color="#D5D0BB"/>
			<path style="fill:#FFFFFF" d="M11.5,15h10c0.552,0,1-0.447,1-1s-0.448-1-1-1h-10c-0.552,0-1,0.447-1,1S10.948,15,11.5,15z" data-original="#D5D0BB" class="active-path" data-old_color="#D5D0BB"/>
			<path style="fill:#FFFFFF" d="M36.5,29h-25c-0.552,0-1,0.447-1,1s0.448,1,1,1h25c0.552,0,1-0.447,1-1S37.052,29,36.5,29z" data-original="#D5D0BB" class="active-path" data-old_color="#D5D0BB"/>
			<path style="fill:#FFFFFF" d="M36.5,37h-25c-0.552,0-1,0.447-1,1s0.448,1,1,1h25c0.552,0,1-0.447,1-1S37.052,37,36.5,37z" data-original="#D5D0BB" class="active-path" data-old_color="#D5D0BB"/>
			<path style="fill:#FFFFFF" d="M36.5,45h-25c-0.552,0-1,0.447-1,1s0.448,1,1,1h25c0.552,0,1-0.447,1-1S37.052,45,36.5,45z" data-original="#D5D0BB" class="active-path" data-old_color="#D5D0BB"/>
		</g>
		<polygon style="fill:#FFFFFF" points="32.5,0 32.5,14 46.5,14   " data-original="#D5D0BB" class="active-path" data-old_color="#D5D0BB"/>
	</g>
	<g>
		<rect x="34.5" y="36" style="fill:#000000" width="22" height="22" data-original="#21AE5E" class="" data-old_color="#21AE5E"/>
		<rect x="44.5" y="37.586" style="fill:#FFFFFF" width="2" height="16" data-original="#FFFFFF" class=""/>
		<polygon style="fill:#FFFFFF" points="45.5,55 38.5,48.293 39.976,46.879 45.5,52.172 51.024,46.879 52.5,48.293   " data-original="#FFFFFF" class=""/>
	</g>
</g></g> </svg>
