<?xml version="1.0"?>
<svg xmlns="http://www.w3.org/2000/svg" height="512px" viewBox="0 0 64 64" width="512px"><g><g id="Calendar"><path d="m12 47h4.001v3h-4.001z" data-original="#000000" class="active-path" data-old_color="#000000" fill="#29B7D3"/><path d="m49 38a11 11 0 1 0 11 11 11.013 11.013 0 0 0 -11-11zm7.192 8.222-8.485 8.485a1 1 0 0 1 -1.414 0l-4.242-4.243a1 1 0 0 1 1.414-1.414l3.535 3.536 7.778-7.778a1 1 0 0 1 1.414 1.414z" data-original="#000000" class="active-path" data-old_color="#000000" fill="#29B7D3"/><path d="m24 29h4.001v3h-4.001z" data-original="#000000" class="active-path" data-old_color="#000000" fill="#29B7D3"/><path d="m36 29h4v3h-4z" data-original="#000000" class="active-path" data-old_color="#000000" fill="#29B7D3"/><path d="m12 38h4.001v3h-4.001z" data-original="#000000" class="active-path" data-old_color="#000000" fill="#29B7D3"/><path d="m24 38h4.001v3h-4.001z" data-original="#000000" class="active-path" data-old_color="#000000" fill="#29B7D3"/><path d="m12 29h4.001v3h-4.001z" data-original="#000000" class="active-path" data-old_color="#000000" fill="#29B7D3"/><path d="m16 14a2.006 2.006 0 0 0 2-2v-6a2 2 0 0 0 -4 0v6a2.006 2.006 0 0 0 2 2z" data-original="#000000" class="active-path" data-old_color="#000000" fill="#29B7D3"/><path d="m32 14a2.006 2.006 0 0 0 2-2v-6a2 2 0 0 0 -4 0v6a2.006 2.006 0 0 0 2 2z" data-original="#000000" class="active-path" data-old_color="#000000" fill="#29B7D3"/><path d="m48 14a2.006 2.006 0 0 0 2-2v-6a2 2 0 0 0 -4 0v6a2.006 2.006 0 0 0 2 2z" data-original="#000000" class="active-path" data-old_color="#000000" fill="#29B7D3"/><path d="m48 29h4v3h-4z" data-original="#000000" class="active-path" data-old_color="#000000" fill="#29B7D3"/><path d="m57 10h-5v2a4 4 0 0 1 -8 0v-2h-8v2a4 4 0 0 1 -8 0v-2h-8v2a4 4 0 0 1 -8 0v-2h-5a3.009 3.009 0 0 0 -3 3v7h56v-7a3.009 3.009 0 0 0 -3-3z" data-original="#000000" class="active-path" data-old_color="#000000" fill="#29B7D3"/><path d="m24 47h4.001v3h-4.001z" data-original="#000000" class="active-path" data-old_color="#000000" fill="#29B7D3"/><path d="m4 22v31a3.009 3.009 0 0 0 3 3h31.063a12.984 12.984 0 1 1 21.937-13.9v-20.1zm14 28a2 2 0 0 1 -2 2h-4a2 2 0 0 1 -2-2v-3a2 2 0 0 1 2-2h4a2 2 0 0 1 2 2zm0-9a2 2 0 0 1 -2 2h-4a2 2 0 0 1 -2-2v-3a2 2 0 0 1 2-2h4a2 2 0 0 1 2 2zm0-9a2 2 0 0 1 -2 2h-4a2 2 0 0 1 -2-2v-3a2 2 0 0 1 2-2h4a2 2 0 0 1 2 2zm12 18a2 2 0 0 1 -2 2h-4a2 2 0 0 1 -2-2v-3a2 2 0 0 1 2-2h4a2 2 0 0 1 2 2zm0-9a2 2 0 0 1 -2 2h-4a2 2 0 0 1 -2-2v-3a2 2 0 0 1 2-2h4a2 2 0 0 1 2 2zm0-9a2 2 0 0 1 -2 2h-4a2 2 0 0 1 -2-2v-3a2 2 0 0 1 2-2h4a2 2 0 0 1 2 2zm10 6h-4v3a1 1 0 0 1 0 2 2 2 0 0 1 -2-2v-3a2 2 0 0 1 2-2h4a1 1 0 0 1 0 2zm2-6a2 2 0 0 1 -2 2h-4a2 2 0 0 1 -2-2v-3a2 2 0 0 1 2-2h4a2 2 0 0 1 2 2zm12 0a2 2 0 0 1 -2 2h-4a2 2 0 0 1 -2-2v-3a2 2 0 0 1 2-2h4a2 2 0 0 1 2 2z" data-original="#000000" class="active-path" data-old_color="#000000" fill="#29B7D3"/></g></g> </svg>
