<?xml version="1.0"?>
<svg xmlns="http://www.w3.org/2000/svg" id="Capa_1" enable-background="new 0 0 512 512" height="512px" viewBox="0 0 512 512" width="512px" class=""><g><g><path d="m497 120h-46v-105c0-8.284-6.716-15-15-15h-180c-8.284 0-15 6.716-15 15v105h-31.509c-6.969-34.192-37.272-60-73.491-60s-66.522 25.808-73.491 60h-47.509c-8.284 0-15 6.716-15 15v362c0 8.284 6.716 15 15 15h482c8.284 0 15-6.716 15-15v-362c0-8.284-6.716-15-15-15zm-226-90h150v90h-150zm-135 60c24.813 0 45 20.187 45 45v302c0 24.813-20.187 45-45 45s-45-20.187-45-45v-302c0-24.813 20.187-45 45-45zm-106 60h31v287c0 16.871 5.603 32.456 15.041 45h-46.041zm452 332h-286.041c9.438-12.544 15.041-28.129 15.041-45v-287h271z" data-original="#000000" class="active-path" data-old_color="#000000" fill="#FFB606"/><path d="m376 60h-60c-8.284 0-15 6.716-15 15s6.716 15 15 15h60c8.284 0 15-6.716 15-15s-6.716-15-15-15z" data-original="#000000" class="active-path" data-old_color="#000000" fill="#FFB606"/><path d="m256 182c-8.284 0-15 6.716-15 15v60c0 8.284 6.716 15 15 15h180c8.284 0 15-6.716 15-15v-60c0-8.284-6.716-15-15-15zm165 60h-150v-30h150z" data-original="#000000" class="active-path" data-old_color="#000000" fill="#FFB606"/><circle cx="286" cy="317" r="15" data-original="#000000" class="active-path" data-old_color="#000000" fill="#FFB606"/><circle cx="346" cy="317" r="15" data-original="#000000" class="active-path" data-old_color="#000000" fill="#FFB606"/><circle cx="406" cy="317" r="15" data-original="#000000" class="active-path" data-old_color="#000000" fill="#FFB606"/><circle cx="286" cy="377" r="15" data-original="#000000" class="active-path" data-old_color="#000000" fill="#FFB606"/><circle cx="346" cy="377" r="15" data-original="#000000" class="active-path" data-old_color="#000000" fill="#FFB606"/><circle cx="406" cy="377" r="15" data-original="#000000" class="active-path" data-old_color="#000000" fill="#FFB606"/><circle cx="286" cy="437" r="15" data-original="#000000" class="active-path" data-old_color="#000000" fill="#FFB606"/><circle cx="346" cy="437" r="15" data-original="#000000" class="active-path" data-old_color="#000000" fill="#FFB606"/><circle cx="406" cy="437" r="15" data-original="#000000" class="active-path" data-old_color="#000000" fill="#FFB606"/></g></g> </svg>
