<?xml version="1.0"?>
<svg xmlns="http://www.w3.org/2000/svg" height="512px" viewBox="0 0 512 512.002" width="512px" class=""><g><path d="m9.261719 118.859375c5.601562 2.320313 12.058593 1.039063 16.347656-3.253906l13.179687-13.179688 6.902344 6.898438c-23.480468 33.78125-38.527344 73.203125-43.71875 114.820312-.53125 4.269531.792969 8.558594 3.640625 11.785157 2.847657 3.222656 6.941407 5.070312 11.242188 5.070312h121.941406c6.839844 0 12.8125-4.625 14.523437-11.25 9.53125-36.898438 39.53125-66.898438 76.433594-76.429688 6.621094-1.710937 11.246094-7.683593 11.246094-14.523437v-121.941406c0-4.300781-1.847656-8.394531-5.070312-11.242188-3.226563-2.847656-7.511719-4.175781-11.785157-3.640625-41.613281 5.1875-81.039062 20.234375-114.816406 43.71875l-6.902344-6.902344 13.183594-13.183593c4.289063-4.289063 5.570313-10.742188 3.25-16.347657-2.324219-5.601562-7.792969-9.257812-13.859375-9.257812h-90c-8.28125 0-15 6.714844-15 15v90c0 6.066406 3.65625 11.535156 9.261719 13.859375zm20.738281-88.871094h39.054688c-4.25 5.867188-3.734376 14.121094 1.550781 19.40625l26.617187 26.617188c5.347656 5.347656 13.839844 5.878906 19.8125 1.238281 27.34375-21.257812 59.542969-35.875 93.964844-42.773438v93.25c-38.386719 13.703126-69.570312 44.886719-83.269531 83.273438h-93.253907c6.898438-34.421875 21.519532-66.625 42.773438-93.96875 4.640625-5.96875 4.113281-14.460938-1.234375-19.8125l-26.617187-26.613281c-5.289063-5.285157-13.535157-5.804688-19.398438-1.550781zm0 0" data-original="#000000" class="active-path" data-old_color="#000000" fill="#FFB606"/><path d="m497 0h-90c-6.066406 0-11.535156 3.65625-13.855469 9.261719-2.324219 5.601562-1.039062 12.054687 3.25 16.34375l13.183594 13.183593-6.902344 6.902344c-33.777343-23.480468-73.203125-38.53125-114.816406-43.71875-4.273437-.53125-8.558594.792969-11.785156 3.640625-3.226563 2.847657-5.074219 6.941407-5.074219 11.242188v121.941406c0 6.839844 4.628906 12.8125 11.25 14.523437 36.898438 9.53125 66.898438 39.53125 76.429688 76.429688 1.710937 6.621094 7.6875 11.25 14.523437 11.25h121.941406c4.300781 0 8.394531-1.847656 11.242188-5.070312 2.847656-3.226563 4.175781-7.515626 3.640625-11.785157-5.1875-41.617187-20.234375-81.039062-43.71875-114.820312l6.902344-6.898438 13.183593 13.179688c4.289063 4.292969 10.742188 5.574219 16.347657 3.253906 5.605468-2.324219 9.257812-7.792969 9.257812-13.859375v-90c0-8.285156-6.714844-15-15-15zm-15 69.054688c-5.863281-4.25-14.109375-3.734376-19.394531 1.550781l-26.617188 26.617187c-5.347656 5.347656-5.878906 13.839844-1.234375 19.8125 21.253906 27.34375 35.871094 59.542969 42.769532 93.964844h-93.25c-13.703126-38.386719-44.886719-69.570312-83.273438-83.269531v-93.25c34.421875 6.894531 66.625 21.515625 93.96875 42.769531 5.96875 4.644531 14.464844 4.113281 19.8125-1.234375l26.617188-26.617187c5.285156-5.285157 5.800781-13.53125 1.550781-19.394532h39.050781zm0 0" data-original="#000000" class="active-path" data-old_color="#000000" fill="#FFB606"/><path d="m502.742188 393.140625c-5.605469-2.320313-12.058594-1.035156-16.347657 3.253906l-13.183593 13.183594-6.902344-6.902344c23.484375-33.78125 38.53125-73.203125 43.71875-114.820312.535156-4.265625-.792969-8.558594-3.640625-11.785157-2.847657-3.222656-6.941407-5.070312-11.242188-5.070312h-121.941406c-6.839844 0-12.8125 4.628906-14.523437 11.25-9.53125 36.898438-39.53125 66.898438-76.429688 76.433594-6.621094 1.710937-11.25 7.683594-11.25 14.519531v121.941406c0 4.300781 1.847656 8.394531 5.070312 11.242188 3.226563 2.847656 7.515626 4.175781 11.785157 3.640625 41.617187-5.1875 81.039062-20.234375 114.820312-43.71875l6.898438 6.902344-13.179688 13.183593c-4.292969 4.289063-5.574219 10.742188-3.253906 16.347657 2.324219 5.605468 7.792969 9.261718 13.859375 9.261718h90c8.28125 0 15-6.71875 15-15v-90c0-6.070312-3.652344-11.539062-9.257812-13.863281zm-20.742188 88.859375h-39.050781c4.25-5.863281 3.730469-14.109375-1.554688-19.394531l-26.617187-26.617188c-5.347656-5.351562-13.839844-5.878906-19.8125-1.238281-27.339844 21.257812-59.542969 35.875-93.964844 42.773438v-93.25c38.386719-13.703126 69.570312-44.894532 83.273438-83.28125h93.25c-6.898438 34.417968-21.519532 66.632812-42.773438 93.976562-4.640625 5.96875-4.109375 14.464844 1.238281 19.8125l26.617188 26.613281c5.28125 5.285157 13.527343 5.800781 19.394531 1.554688zm0 0" data-original="#000000" class="active-path" data-old_color="#000000" fill="#FFB606"/><path d="m229.753906 358.679688c-36.898437-9.53125-66.902344-39.53125-76.433594-76.433594-1.710937-6.621094-7.683593-11.246094-14.523437-11.246094h-121.941406c-4.300781 0-8.394531 1.847656-11.242188 5.070312-2.847656 3.226563-4.171875 7.515626-3.640625 11.785157 5.1875 41.613281 20.234375 81.039062 43.71875 114.816406l-6.902344 6.902344-13.183593-13.183594c-4.289063-4.289063-10.742188-5.570313-16.34375-3.25-5.605469 2.324219-9.261719 7.792969-9.261719 13.859375v90c0 8.285156 6.71875 15 15 15h90c6.066406 0 11.535156-3.65625 13.859375-9.261719 2.320313-5.601562 1.039063-12.054687-3.253906-16.34375l-13.179688-13.183593 6.898438-6.902344c33.78125 23.480468 73.203125 38.53125 114.820312 43.71875 4.269531.53125 8.558594-.792969 11.785157-3.640625 3.222656-2.847657 5.070312-6.941407 5.070312-11.242188v-121.941406c0-6.839844-4.625-12.8125-11.246094-14.523437zm-18.753906 118.84375c-34.421875-6.898438-66.621094-21.515626-93.964844-42.773438-5.972656-4.640625-14.464844-4.109375-19.8125 1.238281l-26.617187 26.617188c-5.285157 5.285156-5.804688 13.53125-1.550781 19.394531h-39.054688v-39.054688c5.863281 4.25 14.109375 3.734376 19.398438-1.550781l26.617187-26.617187c5.347656-5.347656 5.875-13.839844 1.234375-19.8125-21.253906-27.339844-35.875-59.542969-42.773438-93.964844h93.253907c13.699219 38.386719 44.882812 69.570312 83.269531 83.273438zm0 0" data-original="#000000" class="active-path" data-old_color="#000000" fill="#FFB606"/><path d="m262.964844 239.292969c-13.546875 7.128906-21.964844 21.890625-21.964844 38.523437 0 8.28125 6.71875 15 15 15 8.285156 0 15-6.71875 15-15 0-5.296875 2.386719-10.109375 5.933594-11.976562 14.84375-7.808594 24.066406-23.074219 24.066406-39.839844 0-24.8125-20.1875-45-45-45s-45 20.1875-45 45c0 8.285156 6.71875 15 15 15 8.285156 0 15-6.714844 15-15 0-8.269531 6.730469-15 15-15 8.273438 0 15 6.730469 15 15 0 5.589844-3.078125 10.683594-8.035156 13.292969zm0 0" data-original="#000000" class="active-path" data-old_color="#000000" fill="#FFB606"/><path d="m271 316c0 8.285156-6.714844 15-15 15s-15-6.714844-15-15 6.714844-15 15-15 15 6.714844 15 15zm0 0" data-original="#000000" class="active-path" data-old_color="#000000" fill="#FFB606"/></g> </svg>
